<?xml version='1.0' encoding='utf-8'?>
<svg xmlns="http://www.w3.org/2000/svg" width="38" height="38" viewBox="589 95 38 38" fill="none"><g id="Frame 9146">
<rect x="589" y="95" width="38" height="38" rx="19" fill="#F6F8FA" />
<g id="Capa_1">
<g id="SVGRepo_iconCarrier_3">
<g id="Group_2">
<path id="Vector_6" d="M619 108.02V114.68C619 114.68 617.575 114.96 617.281 114.997C616.988 115.034 616.069 115.331 615.402 114.69C614.374 113.705 610.721 110.073 610.721 110.073C610.721 110.073 610.091 109.455 609.08 109.989C608.152 110.478 606.776 111.195 606.201 111.474C605.115 112.052 604.214 111.135 604.214 110.436C604.214 109.894 604.553 109.526 605.036 109.255C606.347 108.461 609.109 106.91 610.259 106.299C610.959 105.927 611.462 105.895 612.423 106.704C613.605 107.699 614.657 108.605 614.657 108.605C614.657 108.605 615 108.892 615.548 108.776C616.892 108.492 619 108.02 619 108.02ZM604.462 119.304C604.639 118.85 604.579 118.341 604.24 117.992C603.936 117.681 603.491 117.598 603.066 117.696C603.185 117.275 603.12 116.827 602.813 116.511C602.508 116.2 602.063 116.116 601.639 116.214C601.757 115.794 601.692 115.346 601.385 115.031C600.905 114.539 600.075 114.56 599.529 115.08C598.987 115.6 598.639 116.544 599.124 117.099C599.607 117.651 600.162 117.315 600.586 117.219C600.468 117.639 600.115 118.03 600.55 118.579C600.984 119.13 601.589 118.796 602.013 118.7C601.894 119.119 601.557 119.549 601.975 120.059C602.397 120.57 603.087 120.298 603.544 120.156C603.368 120.609 602.991 121.097 603.475 121.644C603.958 122.194 605.076 121.94 605.621 121.419C606.166 120.898 606.218 120.073 605.739 119.579C605.409 119.24 604.916 119.161 604.462 119.304ZM614.42 115.839C610.475 111.894 612.33 113.75 610.207 111.623C610.207 111.623 609.569 110.987 608.728 111.356C608.138 111.615 607.378 111.968 606.806 112.237C606.177 112.566 605.725 112.668 605.513 112.667C604.298 112.659 603.312 111.683 603.312 110.469C603.312 109.681 603.73 108.996 604.354 108.607C605.23 108 607.248 106.927 607.248 106.927C607.248 106.927 606.633 106.148 605.287 106.148C603.94 106.148 601.128 107.991 601.128 107.991C601.128 107.991 600.33 108.502 599.192 108.041L597 107.278V114.898C597 114.898 597.626 115.08 598.189 115.309C598.316 114.947 598.521 114.612 598.805 114.336C599.738 113.447 601.285 113.438 602.134 114.312C602.39 114.578 602.568 114.895 602.659 115.246C603.001 115.351 603.311 115.538 603.56 115.795C603.817 116.059 603.995 116.378 604.086 116.726C604.428 116.832 604.738 117.02 604.987 117.276C605.269 117.567 605.456 117.917 605.544 118.297C605.901 118.401 606.224 118.594 606.484 118.86C606.994 119.384 607.175 120.095 607.065 120.781C607.066 120.781 607.068 120.781 607.069 120.783C607.077 120.794 607.385 121.137 607.577 121.33C607.953 121.707 608.567 121.707 608.944 121.33C609.319 120.954 609.321 120.341 608.944 119.963C608.931 119.949 607.587 118.544 607.696 118.435C607.803 118.327 609.515 120.108 609.547 120.141C609.922 120.516 610.536 120.516 610.913 120.141C611.29 119.764 611.289 119.151 610.913 118.774C610.895 118.756 610.818 118.682 610.789 118.653C610.789 118.653 609.092 117.141 609.221 117.012C609.352 116.882 611.46 118.849 611.464 118.849C611.842 119.191 612.426 119.188 612.791 118.823C613.145 118.469 613.153 117.908 612.839 117.529C612.832 117.509 611.232 115.837 611.357 115.712C611.484 115.584 613.067 117.214 613.07 117.218C613.445 117.593 614.059 117.593 614.437 117.218C614.812 116.842 614.812 116.228 614.437 115.849C614.432 115.846 614.425 115.843 614.42 115.839Z" fill="#D4AF37" />
</g>
</g>
</g>
</g>
<defs /></svg>